<svg id="Layer_1" enable-background="new 0 0 512 512" height="512" viewBox="0 0 512 512" width="512" xmlns="http://www.w3.org/2000/svg"><g><path d="m442.647 166.32-192.553 192.553c-2.505 2.505-6.567 2.505-9.073 0l-85.68-85.68c-2.505-2.505-2.505-6.567 0-9.073l195.186-195.185c28.026-28.026 63.217-47.957 101.857-57.036 20.838-4.896 40.25-6.839 47.288.199 6.084 6.084 5.742 21.714 2.673 39.609-7.464 43.505-28.54 83.455-59.698 114.613z" fill="#efefef"/><path d="m502.344 51.707c3.07-17.894 3.412-33.524-2.673-39.609-3.223-3.223-9.045-4.558-16.405-4.594.148 6.657-.692 14.572-2.136 22.989-7.462 43.505-28.538 83.455-59.696 114.613l-192.553 192.554c-2.505 2.505-6.567 2.505-9.073 0l21.213 21.213c2.505 2.505 6.568 2.505 9.073 0l192.554-192.554c31.157-31.157 52.233-71.107 59.696-114.612z" fill="#dcdcdc"/><path d="m442.649 166.318-14.078 14.078-94.752-94.752 16.709-16.709c28.022-28.023 63.215-47.956 101.851-57.035 20.845-4.893 40.255-6.838 47.291.198 6.088 6.088 5.749 21.715 2.673 39.612-7.467 43.501-28.539 83.453-59.694 114.608z" fill="#e82a40"/><path d="m502.343 51.71c3.076-17.897 3.415-33.524-2.673-39.612-3.221-3.221-9.042-4.556-16.401-4.591.148 6.658-.693 14.572-2.14 22.99-7.467 43.501-28.539 83.453-59.694 114.608l-14.078 14.078 21.213 21.213 14.078-14.078c31.156-31.155 52.228-71.107 59.695-114.608z" fill="#d6243a"/><path d="m186.34 380.418-52.544-52.543 29.139-47.088 70.493 70.493z" fill="#e82a40"/><path d="m212.215 330.067-47.088 29.138 21.213 21.213 47.088-29.138z" fill="#d6243a"/><g fill="#3c85c9"><path d="m178.188 241.275-38.632-26.411c-1.749-1.196-1.981-3.687-.483-5.185l22.886-22.886c2.781-2.781 6.641-4.203 10.561-3.891l59.318 4.723z"/><path d="m272.94 336.027 26.411 38.632c1.196 1.749 3.687 1.981 5.185.483l22.886-22.886c2.781-2.781 4.203-6.641 3.891-10.561l-4.722-59.318z"/><path d="m254.642 171.573h134v42h-134z" transform="matrix(.707 .707 -.707 .707 230.376 -171.032)"/></g><path d="m337.412 214.342h42v30h-42z" fill="#3479ba" transform="matrix(.707 -.707 .707 .707 -57.193 320.608)"/><path d="m115.908 357.42c-38.57 11.499-92.152 45.458-108.377 144.453-.265 1.616 1.231 2.971 2.813 2.549 19.191-5.114 115.195-34.23 141.081-110.854 7.385-21.858-13.184-42.807-35.517-36.148z" fill="#f27a2a"/><path d="m115.908 357.42c-2.446.729-4.952 1.549-7.505 2.47 11.133 6.317 17.708 19.81 13.022 33.679-19.079 56.475-76.245 87.14-112.676 101.41-.424 2.266-.835 4.556-1.218 6.895-.265 1.616 1.231 2.971 2.813 2.549 19.191-5.114 115.195-34.23 141.081-110.854 7.385-21.859-13.184-42.808-35.517-36.149z" fill="#f25817"/><g><path d="m504.978 6.786c-8.263-8.263-25.52-8.962-54.307-2.197-5.067 1.19-10.16 2.584-15.138 4.143-3.953 1.237-6.154 5.445-4.917 9.399 1.237 3.953 5.447 6.156 9.398 4.916 4.633-1.45 9.372-2.747 14.087-3.856 33.105-7.779 39.633-2.434 40.268-1.798.891.891 5.106 6.67.584 33.038-7.175 41.829-27.095 80.066-57.608 110.578l-8.773 8.774-84.146-84.147 11.404-11.404c16.322-16.323 35.002-29.695 55.52-39.748 3.72-1.822 5.258-6.316 3.436-10.035-1.823-3.719-6.314-5.255-10.035-3.436-22.006 10.781-42.034 25.119-59.527 42.611l-61.405 61.406c-.002.002-.005.004-.007.006l-29.699 29.7-25.131 25.132-55.869-4.448c-6.127-.488-12.12 1.725-16.459 6.065l-22.888 22.887c-2.296 2.298-3.44 5.471-3.139 8.704s2.012 6.14 4.694 7.975l31.169 21.308-16.454 16.454c-2.628 2.628-4.076 6.122-4.076 9.84s1.448 7.212 4.076 9.84l3.394 3.394-26.013 42.038c-1.832 2.959-1.387 6.789 1.074 9.25l52.544 52.544c1.447 1.446 3.367 2.196 5.306 2.196 1.358 0 2.725-.368 3.944-1.122l42.038-26.014 3.393 3.393c2.628 2.629 6.123 4.076 9.84 4.076s7.211-1.447 9.839-4.075l16.454-16.454 21.309 31.17c1.834 2.682 4.741 4.393 7.976 4.693.341.032.681.048 1.019.048 2.875 0 5.63-1.133 7.686-3.188l22.886-22.887c4.34-4.341 6.55-10.34 6.063-16.459l-4.448-55.869 25.13-25.13c.001-.001.001-.001.002-.002l29.699-29.699c.002-.001.003-.003.004-.005l58.776-58.776c32.718-32.718 54.083-73.746 61.786-118.65 4.139-24.12 2.626-38.794-4.759-46.179zm-337.715 185.304c1.229-1.229 2.933-1.85 4.663-1.718l43.12 3.433-37.76 37.76-29.4-20.098zm250.704-11.701-34.097 34.098-84.146-84.147 34.097-34.097zm-196.538 169.494-33.984 21.029-44.144-44.144 21.029-33.985 16.311 16.312zm24.13 2.916-84.146-84.147 22.077-22.077c.001-.001.002-.001.003-.002l26.525-26.526 49.401-49.401 51.048 51.049c2.929 2.928 7.678 2.928 10.606 0 2.929-2.93 2.929-7.678 0-10.608l-51.048-51.048 19.093-19.093 84.145 84.147-19.092 19.093-10.476-10.477c-2.929-2.928-7.678-2.929-10.606.001-2.929 2.929-2.929 7.677 0 10.607l10.476 10.476zm78.278-10.513c.138 1.734-.488 3.434-1.717 4.663l-19.376 19.377-20.099-29.4 37.76-37.76z"/><path d="m113.766 350.229c-22.875 6.819-55.376 22.751-80.307 59.923-2.308 3.44-1.389 8.1 2.051 10.406 3.44 2.308 8.1 1.389 10.406-2.051 18.022-26.871 42.292-45.007 72.136-53.903 7.855-2.344 15.911-.253 21.546 5.589 5.476 5.677 7.241 13.517 4.722 20.972-22.097 65.41-98.967 94.784-127.924 103.705 3.351-17.379 8.081-33.346 14.097-47.567 1.614-3.815-.17-8.215-3.985-9.829-3.815-1.613-8.215.17-9.83 3.985-7.414 17.527-12.983 37.446-16.548 59.199-.539 3.281.612 6.574 3.077 8.809 1.823 1.653 4.152 2.533 6.542 2.533.841 0 1.69-.109 2.526-.332 19.666-5.241 119.145-35.45 146.256-115.702 4.348-12.869 1.306-26.397-8.137-36.187-9.46-9.808-23.497-13.465-36.628-9.55z"/></g></g></svg>