<svg height="512" viewBox="0 0 512 512" width="512" xmlns="http://www.w3.org/2000/svg"><g id="Filledoutline"><path d="m384 96h32v72h-32z" fill="#b2b1b4"/><path d="m368 72h64v40h-64z" fill="#808080"/><path d="m312 48h144a32 32 0 0 1 32 32 0 0 0 0 1 0 0h-144a32 32 0 0 1 -32-32 0 0 0 0 1 0 0z" fill="#4e4e4f" transform="matrix(-1 0 0 -1 800 128)"/><path d="m416 48v-16a16 16 0 0 0 -16-16 16 16 0 0 0 -16 16v16z" fill="#eb5849"/><path d="m136 184v30l-8.2 15.37-39.8 74.63v24.51l-40-24.51 55.47-104 8.53-16z" fill="#686869"/><path d="m136 184v30l-8.2 15.37-23.49-29.37h-.84l8.53-16z" fill="#4e4e4f"/><path d="m376 184v30l8.2 15.37 39.8 74.63v24.51l40-24.51-55.47-104-8.53-16z" fill="#686869"/><path d="m376 184v30l8.2 15.37 23.49-29.37h.84l-8.53-16z" fill="#4e4e4f"/><path d="m96 96h32v72h-32z" fill="#b2b1b4"/><path d="m80 72h64v40h-64z" fill="#808080"/><path d="m48 304h416v192h-416z" fill="#f8bc1e"/><path d="m464 304h-12a12 12 0 0 0 -12 12v83.381a72.619 72.619 0 0 1 -72.619 72.619h-307.381a12 12 0 0 0 -12 12v12h416z" fill="#f5a922"/><path d="m295.16 242.93 1.48 37.07 6.73 168.33a16.322 16.322 0 0 0 32.63-.65v-183.68z" fill="#686869"/><path d="m295.16 242.93 1.48 37.07h39.36v-16z" fill="#4e4e4f"/><path d="m216.84 242.93-1.48 37.07-6.73 168.33a16.322 16.322 0 0 1 -32.63-.65v-183.68z" fill="#686869"/><path d="m216.84 242.93-1.48 37.07h-39.36v-16z" fill="#4e4e4f"/><ellipse cx="256" cy="184" fill="#4e4e4f" rx="96" ry="80"/><path d="m336 184 40-32h104a16 16 0 0 1 16 16 16 16 0 0 1 -16 16h-72l-72 80h-160l-64-80h-80a16 16 0 0 1 -16-16 16 16 0 0 1 16-16h112l40 32z" fill="#686869"/><path d="m56 48h144a0 0 0 0 1 0 0 32 32 0 0 1 -32 32h-144a0 0 0 0 1 0 0 32 32 0 0 1 32-32z" fill="#4e4e4f"/><path d="m96 48v-16a16 16 0 0 1 16-16 16 16 0 0 1 16 16v16z" fill="#eb5849"/><circle cx="256" cy="184" fill="#0093b9" r="48"/><circle cx="256" cy="184" fill="#2da4c4" r="32"/><ellipse cx="233.773" cy="161.773" fill="#8acadb" rx="16.971" ry="10.804" transform="matrix(.707 -.707 .707 .707 -45.92 212.685)"/><circle cx="256" cy="184" fill="#5db9d2" r="16"/><path d="m480 144h-56v-24h8a8 8 0 0 0 8-8v-24h48a8 8 0 0 0 8-8 40.045 40.045 0 0 0 -40-40h-32v-8a24 24 0 0 0 -48 0v8h-64a8 8 0 0 0 -8 8 40.045 40.045 0 0 0 40 40h16v24a8 8 0 0 0 8 8h8v24a8 8 0 0 0 -5 1.753l-15.562 12.447c-5.737-15.873-16.718-30.167-31.816-41.1-18.798-13.6-42.812-21.1-67.622-21.1-23.562 0-46.637 6.837-64.973 19.253-14.753 9.99-26 23.249-32.528 38.1l-9.5-7.6a8 8 0 0 0 -4.999-1.753h-8v-24h8a8 8 0 0 0 8-8v-24h16a40.045 40.045 0 0 0 40-40 8 8 0 0 0 -8-8h-64v-8a24 24 0 0 0 -48 0v8h-32a40.045 40.045 0 0 0 -40 40 8 8 0 0 0 8 8h48v24a8 8 0 0 0 8 8h8v24h-56a24 24 0 0 0 0 48h66.667l-57.687 108.163-.031.058-.008.014a7.958 7.958 0 0 0 -.941 3.765v192a8 8 0 0 0 8 8h416a8 8 0 0 0 8-8v-192a7.958 7.958 0 0 0 -.942-3.764l-.008-.014-.031-.058-57.686-108.164h66.667a24 24 0 0 0 0-48zm-88-112a8 8 0 0 1 16 0v8h-16zm-70.629 24h134.629a24.042 24.042 0 0 1 22.629 16h-134.629a24.042 24.042 0 0 1 -22.629-16zm102.629 32v16h-48v-16zm-32 32h16v24h-16zm-136-8c41.446 0 77.46 24.172 86.032 56.929l-8.839 7.071h-21.774a55.992 55.992 0 0 0 -110.838 0h-13.774l-15.255-12.2c10.856-30.295 45.417-51.8 84.448-51.8zm40 72a40 40 0 1 1 -40-40 40.045 40.045 0 0 1 40 40zm-192-152a8 8 0 0 1 16 0v8h-16zm-48 24h134.629a24.042 24.042 0 0 1 -22.629 16h-134.629a24.042 24.042 0 0 1 22.629-16zm80 32v16h-48v-16zm-32 32h16v24h-16zm324.8 176-41.242-77.328 13.731-15.256 49.378 92.584zm-52.628-64.677 34.495 64.677h-66.667v-28.93zm-87.858 40.677.96 24h-66.548l.96-24zm-104.314 0h23.674l-7.04 176.012a8.32 8.32 0 0 1 -16.634-.332zm-16 24h-66.667l36.009-67.517 30.658 38.323zm-84.8 0h-21.867l52.009-97.517 13.12 16.4zm372.8 192h-400v-176h112v135.68a24.32 24.32 0 0 0 48.62.972l5.466-136.652h67.828l5.466 136.653a24.32 24.32 0 0 0 48.62-.973v-135.68h112zm-151.674-216h23.674v175.68a8.32 8.32 0 0 1 -16.634.333zm175.674-96h-72a8 8 0 0 0 -5.946 2.648l-7.367 8.186-1.746.931.338.633-60.841 67.602h-152.593l-61.6-77a8 8 0 0 0 -6.245-3h-80a8 8 0 0 1 0-16h109.193l37.807 30.247a8 8 0 0 0 5 1.753h16.581a55.992 55.992 0 0 0 110.838 0h24.581a8 8 0 0 0 5-1.753l37.807-30.247h101.193a8 8 0 0 1 0 16z"/><path d="m256 160v16a8 8 0 1 1 -8 8h-16a24 24 0 1 0 24-24z"/><path d="m184 224h16v16h-16z"/><path d="m312 224h16v16h-16z"/><path d="m424 456h16v16h-16z"/><path d="m392 456h16v16h-16z"/></g></svg>