<svg id="Capa_1" enable-background="new 0 0 511.991 511.991" height="512" viewBox="0 0 511.991 511.991" width="512" xmlns="http://www.w3.org/2000/svg"><g><g><path d="m440.835 7.155c-10.329 0-212.303 0-222.634 0-10.226 0-18.515 8.371-18.515 18.698 0 5.278 2.209 10.31 6.081 13.854l35.732 32.705h176.038l35.732-32.705c3.872-3.544 6.081-8.576 6.081-13.854 0-10.327-8.29-18.698-18.515-18.698z" fill="#ce775f"/><path d="m253.686 25.853c0-10.326 8.29-18.698 18.515-18.698-28.895 0-50.777 0-54 0-10.225 0-18.515 8.371-18.515 18.698 0 5.278 2.209 10.31 6.081 13.854l35.732 32.705h54l-35.732-32.705c-3.873-3.545-6.081-8.577-6.081-13.854z" fill="#c0694e"/><path d="m440.835 504.146c-10.329 0-212.303 0-222.634 0-10.226 0-18.515-8.331-18.515-18.608 0-5.252 2.209-10.26 6.081-13.787l35.732-32.548h176.038l35.732 32.548c3.872 3.527 6.081 8.535 6.081 13.787 0 10.277-8.29 18.608-18.515 18.608z" fill="#ce775f"/><path d="m253.686 485.539c0-5.252 2.209-10.26 6.081-13.787l35.732-32.548c-27.895 0-50.472 0-54 0l-35.732 32.548c-3.872 3.527-6.081 8.535-6.081 13.787 0 10.277 8.29 18.608 18.515 18.608h54c-10.226-.001-18.515-8.332-18.515-18.608z" fill="#c0694e"/><path d="m106.155 371.862h27.195c3.509 0 6.791.995 9.613 2.693l-16.357-294.004c-.484-8.699-13.222-8.699-13.706 0l-16.358 294.005c2.823-1.698 6.104-2.694 9.613-2.694z" fill="#dbedff"/><path d="m127.905 103.9-1.299-23.348c-.484-8.699-13.222-8.699-13.706 0l-16.358 294.004c2.822-1.698 6.104-2.693 9.613-2.693h10.896z" fill="#b5dcff"/><path d="m419.472 71.774h-179.908c-14.234 0-25.773 11.539-25.773 25.773v316.206c0 14.234 11.539 25.773 25.773 25.773h179.908c14.234 0 25.773-11.539 25.773-25.773v-316.205c0-14.234-11.539-25.774-25.773-25.774z" fill="#ff94d5"/><path d="m267.791 413.754v-316.206c0-14.234 11.539-25.773 25.773-25.773h-54c-14.234 0-25.773 11.539-25.773 25.773v316.206c0 14.234 11.539 25.773 25.773 25.773h54c-14.234 0-25.773-11.539-25.773-25.773z" fill="#ff72c7"/><path d="m133.351 369.839h-27.195c-10.377 0-18.867 8.49-18.867 18.867v31.954c0 10.377 8.49 18.867 18.867 18.867h27.195c10.377 0 18.867-8.49 18.867-18.867v-31.954c-.001-10.377-8.491-18.867-18.867-18.867z" fill="#dbedff"/><path d="m113.789 420.66v-31.954c0-10.377 8.49-18.867 18.867-18.867h-26.5c-10.377 0-18.867 8.49-18.867 18.867v31.954c0 10.377 8.49 18.867 18.867 18.867h26.5c-10.377 0-18.867-8.49-18.867-18.867z" fill="#b5dcff"/></g><g><path d="m441.021 0h-222.634c-23.808 0-34.968 29.434-17.471 45.291l24.774 22.454c-11.338 5.309-19.214 16.823-19.214 30.147v252.116c-10.075 12.18-26.705 25.749-46.797 35.666-.865-6.737-4.278-12.686-9.244-16.844l-4.258-76.001c-.231-4.136-3.785-7.289-7.908-7.069-4.135.232-7.3 3.772-7.068 7.908l3.869 69.061c-.019-.001-.038-.001-.057-.002-.489-.027-.981-.044-1.478-.044h-27.194c-.496 0-.988.017-1.478.044-.019.001-.038.001-.057.002l15.134-270.077 9.3 166.016c.231 4.137 3.754 7.302 7.908 7.069 4.135-.232 7.3-3.772 7.068-7.908l-9.936-177.397c-.44-7.857-6.472-13.56-14.342-13.56-7.869 0-13.9 5.703-14.341 13.561l-16.154 288.399c-5.782 4.841-9.468 12.107-9.468 20.219v13.814c-8.67-.128-17.508-.806-26.481-2.052-4.109-.566-7.892 2.294-8.461 6.396-.57 4.103 2.294 7.891 6.396 8.461 9.661 1.342 19.188 2.071 28.546 2.199v3.136c0 14.539 11.828 26.367 26.367 26.367h27.194c14.539 0 26.367-11.828 26.367-26.367v-18.871c21.252-9.422 36.667-21.248 46.573-30.44v42.405c0 13.324 7.876 24.838 19.214 30.147l-24.773 22.454c-17.501 15.858-6.337 45.291 17.47 45.291h93.817c4.143 0 7.5-3.358 7.5-7.5s-3.357-7.5-7.5-7.5h-93.817c-10.081 0-14.805-12.464-7.396-19.176l33.587-30.443h170.253l33.588 30.442c7.409 6.715 2.683 19.177-7.397 19.177h-93.816c-4.143 0-7.5 3.358-7.5 7.5s3.357 7.5 7.5 7.5h93.816c23.805 0 34.971-29.428 17.472-45.291l-24.775-22.455c11.338-5.309 19.214-16.823 19.214-30.147 0-4.133 0-311.95 0-316.206 0-13.325-7.876-24.838-19.214-30.147l24.775-22.455c17.497-15.86 6.333-45.29-17.473-45.29zm-307.485 432.372h-27.194c-6.268 0-11.367-5.099-11.367-11.367v-3.466c5.933-.341 11.787-.927 17.546-1.776.511 3.645 3.632 6.453 7.418 6.453 4.143 0 7.5-3.358 7.5-7.5 0-6.699 0-12.672 0-19.376 0-4.142-3.357-7.5-7.5-7.5s-7.5 3.358-7.5 7.5v5.255c-5.72.914-11.543 1.565-17.465 1.932v-13.476c0-6.529 5.457-11.367 11.367-11.367h27.194c6.024 0 11.367 4.92 11.367 11.367v31.954c.002 6.268-5.098 11.367-11.366 11.367zm304.395-310.839v35.7l-216.454 234.017v-35.7l32.929-35.6c8.619-9.32 174.875-189.065 183.525-198.417zm0 264.306h-84.109l22.421-24.241h61.688zm-47.814-39.241 22.421-24.241h25.393v24.241zm47.814-39.241h-11.518l11.518-12.453zm-192.311 0h-24.144v-24.241h46.565c-11.442 12.371-11.041 11.938-22.421 24.241zm36.296-39.241h-60.439v-24.241h82.861zm36.296-39.241h-96.735v-24.241h119.157c-21.801 23.57-16.241 17.558-22.422 24.241zm36.296-39.241h-133.031v-24.241h155.453zm-133.031 132.723h10.27l-10.27 11.103zm169.327-171.964h-169.327v-24.241h191.749zm-169.327 262.948 216.454-234.017v35.7l-200.837 217.133c-8.818-1.293-15.617-8.886-15.617-18.058zm35.85 19.031 180.604-195.258v35.699c-5.31 5.741-128.227 138.633-147.583 159.559zm162.331 0c-9.313 0-98.764 0-108.878 0l29.167-31.533h97.984v13.26c0 10.076-8.197 18.273-18.273 18.273zm18.273-332.93-10.832 11.71h-205.622v-13.26c0-10.076 8.197-18.273 18.273-18.273h179.908c10.075 0 18.272 8.197 18.272 18.273v1.55zm10.487-65.265-33.588 30.442h-170.253l-33.588-30.443c-7.409-6.713-2.681-19.176 7.398-19.176h222.634c10.081 0 14.806 12.463 7.397 19.177z"/></g></g></svg>